# xmcd
#
# Track frame offsets: 
#        150
#        12407
#        23149
#        36796
#        47786
#        60416
#        76136
#        87363
#        100881
#        114512
#
# Disc length: 1674 seconds
#
# Revision: 0
# Processed by: cddbd v1.5.2PL0 Copyright (c) Steve Scherf et al.
# Submitted via: ExactAudioCopy v0.99pb4
#
DISCID=7106880a
DTITLE=Johnny Lee - Hey Bartender
DYEAR=1983
DGENRE=Country
TTITLE0=Hey Bartender
TTITLE1=Blue Monday
TTITLE2=You Really Got a Hold on Me
TTITLE3=My Baby Don't Slow Dance
TTITLE4=I'll Have to Say I Love You In a Song
TTITLE5=Women in Boots
TTITLE6=I'm In Love Again
TTITLE7=In My Dreams
TTITLE8=I Just Want to Love You Forever
TTITLE9=Gimme Little Night Time
EXTD=
EXTT0=
EXTT1=
EXTT2=
EXTT3=
EXTT4=
EXTT5=
EXTT6=
EXTT7=
EXTT8=
EXTT9=
PLAYORDER=
